<?xml version="1.0" encoding="UTF-8" standalone="no"?>
<!DOCTYPE svg PUBLIC "-//W3C//DTD SVG 1.1//EN" "http://www.w3.org/Graphics/SVG/1.1/DTD/svg11.dtd">
<svg xmlns="http://www.w3.org/2000/svg" version="1.1" viewBox="0.00 0.00 1284.00 285.00">
<g stroke-width="2.00" fill="none" stroke-linecap="butt">
<path stroke="#94c7f7" vector-effect="non-scaling-stroke" d="
  M 83.67 133.25
  A 0.09 0.09 0.0 0 1 83.60 133.10
  L 136.87 71.90
  Q 137.18 71.54 137.65 71.63
  C 140.33 72.13 143.05 71.40 144.79 69.13
  C 152.59 58.94 133.36 49.82 131.96 65.84
  Q 131.91 66.38 131.56 66.79
  L 74.11 132.86
  Q 73.76 133.25 73.24 133.25
  L 44.40 133.25
  Q 40.16 133.25 41.29 137.34
  L 43.40 144.94
  A 2.55 2.54 -7.6 0 0 45.86 146.81
  Q 152.63 146.58 260.25 146.53
  C 264.13 146.53 265.03 140.12 265.58 137.38
  Q 266.41 133.25 262.19 133.25
  L 234.28 133.25
  Q 233.77 133.25 233.44 132.87
  L 175.71 66.52
  A 0.39 0.38 -66.4 0 1 175.61 66.26
  Q 175.75 58.12 169.14 57.36
  C 157.88 56.06 158.55 73.37 169.92 71.73
  Q 170.40 71.66 170.71 72.02
  L 223.65 132.87
  A 0.23 0.23 0.0 0 1 223.48 133.25
  L 83.67 133.25"
/>
<path stroke="#969696" vector-effect="non-scaling-stroke" d="
  M 755.70 135.95
  Q 756.70 122.12 758.19 108.16
  C 759.16 99.06 757.51 89.91 747.49 87.03
  Q 736.76 83.96 725.66 89.58
  Q 725.24 89.79 725.21 90.25
  Q 721.05 148.37 717.05 206.50
  C 715.81 224.57 729.15 228.78 743.99 225.63
  Q 747.11 224.96 749.16 223.18
  Q 749.55 222.85 749.59 222.33
  Q 751.45 197.64 753.68 173.00
  C 754.68 162.03 758.46 144.36 773.82 147.37
  C 780.49 148.68 783.75 154.67 783.46 161.00
  Q 783.07 169.81 781.32 192.76
  C 780.14 208.19 783.08 224.56 800.12 227.83
  C 816.22 230.91 829.40 222.11 825.38 203.79
  Q 825.26 203.24 824.70 203.11
  C 822.46 202.62 820.19 202.74 818.47 201.29
  C 815.06 198.39 815.53 192.96 815.84 188.43
  Q 816.90 173.09 817.82 157.74
  C 818.32 149.41 818.11 141.01 813.86 133.68
  C 805.89 119.92 788.06 117.75 774.20 122.05
  C 766.34 124.49 760.56 129.22 756.46 136.19
  A 0.41 0.41 0.0 0 1 755.70 135.95"
/>
<path stroke="#969696" vector-effect="non-scaling-stroke" d="
  M 913.75 91.50
  C 871.13 100.10 858.34 148.93 865.56 185.31
  C 870.50 210.20 885.46 226.32 912.27 228.22
  C 928.44 229.36 960.28 223.67 962.25 202.33
  C 963.10 193.15 957.70 186.22 948.88 183.95
  A 1.34 1.33 23.4 0 0 947.42 184.52
  C 940.87 194.73 928.51 200.83 916.76 198.41
  C 899.63 194.88 898.34 171.93 898.66 158.30
  C 898.96 146.05 902.78 130.71 913.07 122.84
  C 920.87 116.88 933.75 117.46 937.46 128.03
  Q 940.47 136.59 938.87 146.05
  Q 938.78 146.57 939.29 146.71
  C 949.33 149.61 962.08 146.49 966.65 136.17
  C 972.37 123.26 967.06 107.31 956.68 98.99
  C 944.82 89.49 928.72 88.48 913.75 91.50"
/>
<path stroke="#969696" vector-effect="non-scaling-stroke" d="
  M 384.95 147.20
  L 386.99 120.76
  A 0.60 0.60 0.0 0 1 387.60 120.20
  Q 402.28 120.41 417.05 120.09
  C 433.02 119.76 435.90 104.17 431.26 92.02
  Q 431.07 91.50 430.51 91.50
  L 355.51 91.50
  A 0.44 0.44 0.0 0 0 355.07 91.91
  Q 350.73 150.84 346.62 208.76
  C 346.05 216.70 347.54 223.01 355.99 225.26
  Q 367.87 228.42 378.82 223.37
  Q 379.35 223.13 379.40 222.54
  L 382.76 177.01
  Q 382.80 176.51 383.31 176.51
  C 392.46 176.50 403.89 177.63 412.72 175.45
  C 425.39 172.34 426.14 158.39 422.37 148.32
  A 0.89 0.89 0.0 0 0 421.54 147.75
  L 385.46 147.75
  Q 384.91 147.75 384.95 147.20"
/>
<path stroke="#969696" vector-effect="non-scaling-stroke" d="
  M 1128.46 136.86
  Q 1121.29 117.65 1100.01 120.77
  C 1087.93 122.55 1081.87 133.61 1086.15 144.88
  Q 1086.32 145.34 1086.82 145.34
  C 1095.20 145.27 1095.93 152.14 1095.41 158.68
  Q 1093.51 182.59 1092.01 206.49
  C 1091.13 220.43 1097.94 227.15 1111.25 226.45
  C 1115.83 226.22 1120.32 226.19 1124.03 223.13
  Q 1124.41 222.81 1124.45 222.32
  Q 1126.38 198.31 1128.49 174.32
  C 1129.24 165.78 1131.14 152.53 1142.51 152.54
  Q 1151.60 152.54 1153.67 161.00
  Q 1153.78 161.44 1154.22 161.34
  Q 1165.20 158.65 1169.77 148.38
  Q 1170.02 147.83 1170.50 148.19
  L 1171.39 148.86
  A 0.78 0.76 61.8 0 0 1171.83 149.00
  L 1183.98 149.00
  Q 1184.56 149.00 1184.51 149.58
  Q 1182.55 171.67 1180.75 193.77
  C 1179.63 207.41 1184.87 220.17 1197.64 225.67
  C 1207.58 229.95 1224.68 229.38 1233.59 222.84
  C 1241.03 217.38 1242.82 205.19 1234.31 199.66
  A 1.24 1.23 43.5 0 0 1232.92 199.69
  C 1229.15 202.38 1223.12 203.93 1218.89 201.47
  C 1213.85 198.54 1214.20 192.93 1214.66 187.93
  Q 1216.43 168.69 1218.11 149.50
  A 0.53 0.52 1.8 0 1 1218.63 149.02
  C 1224.09 148.95 1231.17 149.80 1235.93 147.91
  C 1245.88 143.96 1247.70 134.00 1243.80 124.28
  Q 1243.58 123.75 1243.01 123.75
  L 1221.23 123.75
  Q 1220.64 123.75 1220.70 123.16
  C 1221.12 119.00 1221.37 114.83 1221.77 110.68
  C 1223.57 91.91 1201.51 92.47 1189.80 97.88
  A 0.76 0.76 0.0 0 0 1189.35 98.51
  L 1186.96 123.27
  Q 1186.90 123.86 1186.31 123.82
  Q 1176.75 123.10 1171.18 130.56
  Q 1170.88 130.95 1170.64 130.52
  C 1159.79 111.23 1137.58 121.33 1130.05 136.94
  A 0.87 0.86 47.7 0 1 1128.46 136.86"
/>
<path stroke="#969696" vector-effect="non-scaling-stroke" d="
  M 475.00 137.04
  Q 474.44 136.57 473.97 135.28
  C 465.37 111.66 424.05 116.23 432.19 144.51
  A 1.21 1.21 0.0 0 0 433.34 145.38
  C 442.60 145.39 442.04 153.63 441.57 160.18
  Q 439.98 182.18 438.28 204.17
  C 437.26 217.48 441.32 226.73 456.44 226.47
  C 461.53 226.39 466.23 226.20 470.28 223.23
  Q 470.70 222.92 470.74 222.40
  Q 472.82 197.10 475.05 171.82
  C 475.98 161.18 480.29 149.33 493.55 153.36
  C 497.30 154.50 498.99 157.27 500.05 160.79
  A 0.55 0.54 -15.3 0 0 500.70 161.16
  Q 510.78 158.79 515.34 149.84
  C 519.54 141.60 519.47 128.24 510.43 123.03
  C 496.77 115.16 482.76 124.25 476.45 136.74
  Q 475.91 137.79 475.00 137.04"
/>
<path stroke="#969696" vector-effect="non-scaling-stroke" d="
  M 638.81 215.87
  C 651.02 233.60 687.36 230.30 701.16 216.89
  C 710.96 207.37 711.90 191.35 705.27 179.59
  C 697.36 165.57 678.75 158.89 674.53 144.77
  C 673.11 140.03 674.17 133.91 672.96 128.76
  C 669.90 115.70 651.96 119.74 644.34 125.39
  Q 643.93 125.69 643.88 126.19
  C 640.86 158.97 623.72 186.05 604.27 211.97
  A 1.33 1.29 64.5 0 0 604.00 212.77
  Q 603.98 221.33 611.08 224.44
  C 623.21 229.74 630.22 224.72 638.08 215.83
  Q 638.47 215.38 638.81 215.87"
/>
<path stroke="#969696" vector-effect="non-scaling-stroke" d="
  M 1035.98 210.39
  C 1042.87 238.45 1088.99 232.22 1078.68 203.73
  A 0.76 0.75 80.2 0 0 1077.99 203.24
  C 1069.30 203.01 1069.02 196.94 1069.58 189.64
  Q 1071.47 164.91 1073.39 140.18
  C 1074.90 120.70 1053.85 119.06 1041.03 125.45
  A 0.92 0.91 -10.9 0 0 1040.52 126.20
  L 1039.76 134.50
  A 0.53 0.52 -51.7 0 1 1038.74 134.62
  C 1035.45 124.77 1026.81 120.06 1016.49 120.05
  C 975.84 120.05 967.02 168.34 972.60 198.69
  C 976.72 221.15 994.74 232.70 1016.77 226.06
  Q 1029.32 222.28 1034.52 210.27
  A 0.78 0.77 -40.1 0 1 1035.98 210.39"
/>
<path stroke="#969696" vector-effect="non-scaling-stroke" d="
  M 554.02 196.35
  C 572.37 190.80 597.33 183.89 604.86 162.09
  C 609.39 148.99 603.97 132.66 591.74 125.49
  Q 585.15 121.62 574.96 120.70
  C 546.10 118.09 523.52 137.98 518.11 165.58
  C 511.75 197.99 526.57 227.88 562.72 228.37
  C 575.49 228.54 592.28 225.21 599.96 213.81
  C 605.10 206.19 605.38 196.81 595.52 192.89
  Q 595.02 192.69 594.65 193.08
  C 584.89 203.30 564.14 210.48 553.82 196.97
  Q 553.48 196.52 554.02 196.35"
/>
<path stroke="#94c7f7" vector-effect="non-scaling-stroke" d="
  M 71.28 254.26
  A 2.33 2.32 68.5 0 0 72.98 255.00
  L 233.05 255.00
  Q 236.25 255.00 237.02 251.90
  L 261.42 154.93
  A 2.76 2.75 -82.9 0 0 258.75 151.50
  L 48.26 151.50
  A 2.89 2.89 0.0 0 0 45.46 155.10
  Q 57.46 202.50 69.52 250.81
  Q 70.05 252.92 71.28 254.26"
/>
<path stroke="#969696" vector-effect="non-scaling-stroke" d="
  M 660.77 170.59
  Q 655.77 185.65 648.61 199.82
  Q 648.39 200.25 648.74 200.59
  C 654.60 206.14 667.87 206.58 673.79 201.03
  C 678.94 196.20 675.96 187.34 672.01 182.73
  Q 666.66 176.46 661.03 170.53
  A 0.16 0.15 -56.9 0 0 660.77 170.59"
/>
<path stroke="#969696" vector-effect="non-scaling-stroke" d="
  M 1027.52 146.19
  C 1000.89 142.51 999.25 198.10 1014.99 201.76
  C 1030.08 205.27 1035.25 190.13 1036.45 178.75
  C 1037.45 169.24 1040.26 147.95 1027.52 146.19"
/>
<path stroke="#969696" vector-effect="non-scaling-stroke" d="
  M 568.01 147.04
  C 554.66 147.58 548.57 162.92 548.80 174.29
  Q 548.81 174.82 549.32 174.66
  C 558.13 171.99 580.47 165.65 575.82 151.89
  C 574.65 148.40 571.44 146.90 568.01 147.04"
/>
</g>
<path fill="#ffffff" d="
  M 0.00 0.00
  L 1284.00 0.00
  L 1284.00 285.00
  L 0.00 285.00
  L 0.00 0.00
  Z
  M 83.67 133.25
  A 0.09 0.09 0.0 0 1 83.60 133.10
  L 136.87 71.90
  Q 137.18 71.54 137.65 71.63
  C 140.33 72.13 143.05 71.40 144.79 69.13
  C 152.59 58.94 133.36 49.82 131.96 65.84
  Q 131.91 66.38 131.56 66.79
  L 74.11 132.86
  Q 73.76 133.25 73.24 133.25
  L 44.40 133.25
  Q 40.16 133.25 41.29 137.34
  L 43.40 144.94
  A 2.55 2.54 -7.6 0 0 45.86 146.81
  Q 152.63 146.58 260.25 146.53
  C 264.13 146.53 265.03 140.12 265.58 137.38
  Q 266.41 133.25 262.19 133.25
  L 234.28 133.25
  Q 233.77 133.25 233.44 132.87
  L 175.71 66.52
  A 0.39 0.38 -66.4 0 1 175.61 66.26
  Q 175.75 58.12 169.14 57.36
  C 157.88 56.06 158.55 73.37 169.92 71.73
  Q 170.40 71.66 170.71 72.02
  L 223.65 132.87
  A 0.23 0.23 0.0 0 1 223.48 133.25
  L 83.67 133.25
  Z
  M 755.70 135.95
  Q 756.70 122.12 758.19 108.16
  C 759.16 99.06 757.51 89.91 747.49 87.03
  Q 736.76 83.96 725.66 89.58
  Q 725.24 89.79 725.21 90.25
  Q 721.05 148.37 717.05 206.50
  C 715.81 224.57 729.15 228.78 743.99 225.63
  Q 747.11 224.96 749.16 223.18
  Q 749.55 222.85 749.59 222.33
  Q 751.45 197.64 753.68 173.00
  C 754.68 162.03 758.46 144.36 773.82 147.37
  C 780.49 148.68 783.75 154.67 783.46 161.00
  Q 783.07 169.81 781.32 192.76
  C 780.14 208.19 783.08 224.56 800.12 227.83
  C 816.22 230.91 829.40 222.11 825.38 203.79
  Q 825.26 203.24 824.70 203.11
  C 822.46 202.62 820.19 202.74 818.47 201.29
  C 815.06 198.39 815.53 192.96 815.84 188.43
  Q 816.90 173.09 817.82 157.74
  C 818.32 149.41 818.11 141.01 813.86 133.68
  C 805.89 119.92 788.06 117.75 774.20 122.05
  C 766.34 124.49 760.56 129.22 756.46 136.19
  A 0.41 0.41 0.0 0 1 755.70 135.95
  Z
  M 913.75 91.50
  C 871.13 100.10 858.34 148.93 865.56 185.31
  C 870.50 210.20 885.46 226.32 912.27 228.22
  C 928.44 229.36 960.28 223.67 962.25 202.33
  C 963.10 193.15 957.70 186.22 948.88 183.95
  A 1.34 1.33 23.4 0 0 947.42 184.52
  C 940.87 194.73 928.51 200.83 916.76 198.41
  C 899.63 194.88 898.34 171.93 898.66 158.30
  C 898.96 146.05 902.78 130.71 913.07 122.84
  C 920.87 116.88 933.75 117.46 937.46 128.03
  Q 940.47 136.59 938.87 146.05
  Q 938.78 146.57 939.29 146.71
  C 949.33 149.61 962.08 146.49 966.65 136.17
  C 972.37 123.26 967.06 107.31 956.68 98.99
  C 944.82 89.49 928.72 88.48 913.75 91.50
  Z
  M 384.95 147.20
  L 386.99 120.76
  A 0.60 0.60 0.0 0 1 387.60 120.20
  Q 402.28 120.41 417.05 120.09
  C 433.02 119.76 435.90 104.17 431.26 92.02
  Q 431.07 91.50 430.51 91.50
  L 355.51 91.50
  A 0.44 0.44 0.0 0 0 355.07 91.91
  Q 350.73 150.84 346.62 208.76
  C 346.05 216.70 347.54 223.01 355.99 225.26
  Q 367.87 228.42 378.82 223.37
  Q 379.35 223.13 379.40 222.54
  L 382.76 177.01
  Q 382.80 176.51 383.31 176.51
  C 392.46 176.50 403.89 177.63 412.72 175.45
  C 425.39 172.34 426.14 158.39 422.37 148.32
  A 0.89 0.89 0.0 0 0 421.54 147.75
  L 385.46 147.75
  Q 384.91 147.75 384.95 147.20
  Z
  M 1128.46 136.86
  Q 1121.29 117.65 1100.01 120.77
  C 1087.93 122.55 1081.87 133.61 1086.15 144.88
  Q 1086.32 145.34 1086.82 145.34
  C 1095.20 145.27 1095.93 152.14 1095.41 158.68
  Q 1093.51 182.59 1092.01 206.49
  C 1091.13 220.43 1097.94 227.15 1111.25 226.45
  C 1115.83 226.22 1120.32 226.19 1124.03 223.13
  Q 1124.41 222.81 1124.45 222.32
  Q 1126.38 198.31 1128.49 174.32
  C 1129.24 165.78 1131.14 152.53 1142.51 152.54
  Q 1151.60 152.54 1153.67 161.00
  Q 1153.78 161.44 1154.22 161.34
  Q 1165.20 158.65 1169.77 148.38
  Q 1170.02 147.83 1170.50 148.19
  L 1171.39 148.86
  A 0.78 0.76 61.8 0 0 1171.83 149.00
  L 1183.98 149.00
  Q 1184.56 149.00 1184.51 149.58
  Q 1182.55 171.67 1180.75 193.77
  C 1179.63 207.41 1184.87 220.17 1197.64 225.67
  C 1207.58 229.95 1224.68 229.38 1233.59 222.84
  C 1241.03 217.38 1242.82 205.19 1234.31 199.66
  A 1.24 1.23 43.5 0 0 1232.92 199.69
  C 1229.15 202.38 1223.12 203.93 1218.89 201.47
  C 1213.85 198.54 1214.20 192.93 1214.66 187.93
  Q 1216.43 168.69 1218.11 149.50
  A 0.53 0.52 1.8 0 1 1218.63 149.02
  C 1224.09 148.95 1231.17 149.80 1235.93 147.91
  C 1245.88 143.96 1247.70 134.00 1243.80 124.28
  Q 1243.58 123.75 1243.01 123.75
  L 1221.23 123.75
  Q 1220.64 123.75 1220.70 123.16
  C 1221.12 119.00 1221.37 114.83 1221.77 110.68
  C 1223.57 91.91 1201.51 92.47 1189.80 97.88
  A 0.76 0.76 0.0 0 0 1189.35 98.51
  L 1186.96 123.27
  Q 1186.90 123.86 1186.31 123.82
  Q 1176.75 123.10 1171.18 130.56
  Q 1170.88 130.95 1170.64 130.52
  C 1159.79 111.23 1137.58 121.33 1130.05 136.94
  A 0.87 0.86 47.7 0 1 1128.46 136.86
  Z
  M 475.00 137.04
  Q 474.44 136.57 473.97 135.28
  C 465.37 111.66 424.05 116.23 432.19 144.51
  A 1.21 1.21 0.0 0 0 433.34 145.38
  C 442.60 145.39 442.04 153.63 441.57 160.18
  Q 439.98 182.18 438.28 204.17
  C 437.26 217.48 441.32 226.73 456.44 226.47
  C 461.53 226.39 466.23 226.20 470.28 223.23
  Q 470.70 222.92 470.74 222.40
  Q 472.82 197.10 475.05 171.82
  C 475.98 161.18 480.29 149.33 493.55 153.36
  C 497.30 154.50 498.99 157.27 500.05 160.79
  A 0.55 0.54 -15.3 0 0 500.70 161.16
  Q 510.78 158.79 515.34 149.84
  C 519.54 141.60 519.47 128.24 510.43 123.03
  C 496.77 115.16 482.76 124.25 476.45 136.74
  Q 475.91 137.79 475.00 137.04
  Z
  M 638.81 215.87
  C 651.02 233.60 687.36 230.30 701.16 216.89
  C 710.96 207.37 711.90 191.35 705.27 179.59
  C 697.36 165.57 678.75 158.89 674.53 144.77
  C 673.11 140.03 674.17 133.91 672.96 128.76
  C 669.90 115.70 651.96 119.74 644.34 125.39
  Q 643.93 125.69 643.88 126.19
  C 640.86 158.97 623.72 186.05 604.27 211.97
  A 1.33 1.29 64.5 0 0 604.00 212.77
  Q 603.98 221.33 611.08 224.44
  C 623.21 229.74 630.22 224.72 638.08 215.83
  Q 638.47 215.38 638.81 215.87
  Z
  M 1035.98 210.39
  C 1042.87 238.45 1088.99 232.22 1078.68 203.73
  A 0.76 0.75 80.2 0 0 1077.99 203.24
  C 1069.30 203.01 1069.02 196.94 1069.58 189.64
  Q 1071.47 164.91 1073.39 140.18
  C 1074.90 120.70 1053.85 119.06 1041.03 125.45
  A 0.92 0.91 -10.9 0 0 1040.52 126.20
  L 1039.76 134.50
  A 0.53 0.52 -51.7 0 1 1038.74 134.62
  C 1035.45 124.77 1026.81 120.06 1016.49 120.05
  C 975.84 120.05 967.02 168.34 972.60 198.69
  C 976.72 221.15 994.74 232.70 1016.77 226.06
  Q 1029.32 222.28 1034.52 210.27
  A 0.78 0.77 -40.1 0 1 1035.98 210.39
  Z
  M 554.02 196.35
  C 572.37 190.80 597.33 183.89 604.86 162.09
  C 609.39 148.99 603.97 132.66 591.74 125.49
  Q 585.15 121.62 574.96 120.70
  C 546.10 118.09 523.52 137.98 518.11 165.58
  C 511.75 197.99 526.57 227.88 562.72 228.37
  C 575.49 228.54 592.28 225.21 599.96 213.81
  C 605.10 206.19 605.38 196.81 595.52 192.89
  Q 595.02 192.69 594.65 193.08
  C 584.89 203.30 564.14 210.48 553.82 196.97
  Q 553.48 196.52 554.02 196.35
  Z
  M 71.28 254.26
  A 2.33 2.32 68.5 0 0 72.98 255.00
  L 233.05 255.00
  Q 236.25 255.00 237.02 251.90
  L 261.42 154.93
  A 2.76 2.75 -82.9 0 0 258.75 151.50
  L 48.26 151.50
  A 2.89 2.89 0.0 0 0 45.46 155.10
  Q 57.46 202.50 69.52 250.81
  Q 70.05 252.92 71.28 254.26
  Z"
/>
<path fill="#298fef" d="
  M 83.67 133.25
  L 223.48 133.25
  A 0.23 0.23 0.0 0 0 223.65 132.87
  L 170.71 72.02
  Q 170.40 71.66 169.92 71.73
  C 158.55 73.37 157.88 56.06 169.14 57.36
  Q 175.75 58.12 175.61 66.26
  A 0.39 0.38 -66.4 0 0 175.71 66.52
  L 233.44 132.87
  Q 233.77 133.25 234.28 133.25
  L 262.19 133.25
  Q 266.41 133.25 265.58 137.38
  C 265.03 140.12 264.13 146.53 260.25 146.53
  Q 152.63 146.58 45.86 146.81
  A 2.55 2.54 -7.6 0 1 43.40 144.94
  L 41.29 137.34
  Q 40.16 133.25 44.40 133.25
  L 73.24 133.25
  Q 73.76 133.25 74.11 132.86
  L 131.56 66.79
  Q 131.91 66.38 131.96 65.84
  C 133.36 49.82 152.59 58.94 144.79 69.13
  C 143.05 71.40 140.33 72.13 137.65 71.63
  Q 137.18 71.54 136.87 71.90
  L 83.60 133.10
  A 0.09 0.09 0.0 0 0 83.67 133.25
  Z"
/>
<path fill="#2d2d2d" d="
  M 755.70 135.95
  A 0.41 0.41 0.0 0 0 756.46 136.19
  C 760.56 129.22 766.34 124.49 774.20 122.05
  C 788.06 117.75 805.89 119.92 813.86 133.68
  C 818.11 141.01 818.32 149.41 817.82 157.74
  Q 816.90 173.09 815.84 188.43
  C 815.53 192.96 815.06 198.39 818.47 201.29
  C 820.19 202.74 822.46 202.62 824.70 203.11
  Q 825.26 203.24 825.38 203.79
  C 829.40 222.11 816.22 230.91 800.12 227.83
  C 783.08 224.56 780.14 208.19 781.32 192.76
  Q 783.07 169.81 783.46 161.00
  C 783.75 154.67 780.49 148.68 773.82 147.37
  C 758.46 144.36 754.68 162.03 753.68 173.00
  Q 751.45 197.64 749.59 222.33
  Q 749.55 222.85 749.16 223.18
  Q 747.11 224.96 743.99 225.63
  C 729.15 228.78 715.81 224.57 717.05 206.50
  Q 721.05 148.37 725.21 90.25
  Q 725.24 89.79 725.66 89.58
  Q 736.76 83.96 747.49 87.03
  C 757.51 89.91 759.16 99.06 758.19 108.16
  Q 756.70 122.12 755.70 135.95
  Z"
/>
<path fill="#2d2d2d" d="
  M 865.56 185.31
  C 858.34 148.93 871.13 100.10 913.75 91.50
  C 928.72 88.48 944.82 89.49 956.68 98.99
  C 967.06 107.31 972.37 123.26 966.65 136.17
  C 962.08 146.49 949.33 149.61 939.29 146.71
  Q 938.78 146.57 938.87 146.05
  Q 940.47 136.59 937.46 128.03
  C 933.75 117.46 920.87 116.88 913.07 122.84
  C 902.78 130.71 898.96 146.05 898.66 158.30
  C 898.34 171.93 899.63 194.88 916.76 198.41
  C 928.51 200.83 940.87 194.73 947.42 184.52
  A 1.34 1.33 23.4 0 1 948.88 183.95
  C 957.70 186.22 963.10 193.15 962.25 202.33
  C 960.28 223.67 928.44 229.36 912.27 228.22
  C 885.46 226.32 870.50 210.20 865.56 185.31
  Z"
/>
<path fill="#2d2d2d" d="
  M 385.46 147.75
  L 421.54 147.75
  A 0.89 0.89 0.0 0 1 422.37 148.32
  C 426.14 158.39 425.39 172.34 412.72 175.45
  C 403.89 177.63 392.46 176.50 383.31 176.51
  Q 382.80 176.51 382.76 177.01
  L 379.40 222.54
  Q 379.35 223.13 378.82 223.37
  Q 367.87 228.42 355.99 225.26
  C 347.54 223.01 346.05 216.70 346.62 208.76
  Q 350.73 150.84 355.07 91.91
  A 0.44 0.44 0.0 0 1 355.51 91.50
  L 430.51 91.50
  Q 431.07 91.50 431.26 92.02
  C 435.90 104.17 433.02 119.76 417.05 120.09
  Q 402.28 120.41 387.60 120.20
  A 0.60 0.60 0.0 0 0 386.99 120.76
  L 384.95 147.20
  Q 384.91 147.75 385.46 147.75
  Z"
/>
<path fill="#2d2d2d" d="
  M 1128.46 136.86
  A 0.87 0.86 47.7 0 0 1130.05 136.94
  C 1137.58 121.33 1159.79 111.23 1170.64 130.52
  Q 1170.88 130.95 1171.18 130.56
  Q 1176.75 123.10 1186.31 123.82
  Q 1186.90 123.86 1186.96 123.27
  L 1189.35 98.51
  A 0.76 0.76 0.0 0 1 1189.80 97.88
  C 1201.51 92.47 1223.57 91.91 1221.77 110.68
  C 1221.37 114.83 1221.12 119.00 1220.70 123.16
  Q 1220.64 123.75 1221.23 123.75
  L 1243.01 123.75
  Q 1243.58 123.75 1243.80 124.28
  C 1247.70 134.00 1245.88 143.96 1235.93 147.91
  C 1231.17 149.80 1224.09 148.95 1218.63 149.02
  A 0.53 0.52 1.8 0 0 1218.11 149.50
  Q 1216.43 168.69 1214.66 187.93
  C 1214.20 192.93 1213.85 198.54 1218.89 201.47
  C 1223.12 203.93 1229.15 202.38 1232.92 199.69
  A 1.24 1.23 43.5 0 1 1234.31 199.66
  C 1242.82 205.19 1241.03 217.38 1233.59 222.84
  C 1224.68 229.38 1207.58 229.95 1197.64 225.67
  C 1184.87 220.17 1179.63 207.41 1180.75 193.77
  Q 1182.55 171.67 1184.51 149.58
  Q 1184.56 149.00 1183.98 149.00
  L 1171.83 149.00
  A 0.78 0.76 61.8 0 1 1171.39 148.86
  L 1170.50 148.19
  Q 1170.02 147.83 1169.77 148.38
  Q 1165.20 158.65 1154.22 161.34
  Q 1153.78 161.44 1153.67 161.00
  Q 1151.60 152.54 1142.51 152.54
  C 1131.14 152.53 1129.24 165.78 1128.49 174.32
  Q 1126.38 198.31 1124.45 222.32
  Q 1124.41 222.81 1124.03 223.13
  C 1120.32 226.19 1115.83 226.22 1111.25 226.45
  C 1097.94 227.15 1091.13 220.43 1092.01 206.49
  Q 1093.51 182.59 1095.41 158.68
  C 1095.93 152.14 1095.20 145.27 1086.82 145.34
  Q 1086.32 145.34 1086.15 144.88
  C 1081.87 133.61 1087.93 122.55 1100.01 120.77
  Q 1121.29 117.65 1128.46 136.86
  Z"
/>
<path fill="#2d2d2d" d="
  M 475.00 137.04
  Q 475.91 137.79 476.45 136.74
  C 482.76 124.25 496.77 115.16 510.43 123.03
  C 519.47 128.24 519.54 141.60 515.34 149.84
  Q 510.78 158.79 500.70 161.16
  A 0.55 0.54 -15.3 0 1 500.05 160.79
  C 498.99 157.27 497.30 154.50 493.55 153.36
  C 480.29 149.33 475.98 161.18 475.05 171.82
  Q 472.82 197.10 470.74 222.40
  Q 470.70 222.92 470.28 223.23
  C 466.23 226.20 461.53 226.39 456.44 226.47
  C 441.32 226.73 437.26 217.48 438.28 204.17
  Q 439.98 182.18 441.57 160.18
  C 442.04 153.63 442.60 145.39 433.34 145.38
  A 1.21 1.21 0.0 0 1 432.19 144.51
  C 424.05 116.23 465.37 111.66 473.97 135.28
  Q 474.44 136.57 475.00 137.04
  Z"
/>
<path fill="#2d2d2d" d="
  M 638.08 215.83
  C 630.22 224.72 623.21 229.74 611.08 224.44
  Q 603.98 221.33 604.00 212.77
  A 1.33 1.29 64.5 0 1 604.27 211.97
  C 623.72 186.05 640.86 158.97 643.88 126.19
  Q 643.93 125.69 644.34 125.39
  C 651.96 119.74 669.90 115.70 672.96 128.76
  C 674.17 133.91 673.11 140.03 674.53 144.77
  C 678.75 158.89 697.36 165.57 705.27 179.59
  C 711.90 191.35 710.96 207.37 701.16 216.89
  C 687.36 230.30 651.02 233.60 638.81 215.87
  Q 638.47 215.38 638.08 215.83
  Z
  M 660.77 170.59
  Q 655.77 185.65 648.61 199.82
  Q 648.39 200.25 648.74 200.59
  C 654.60 206.14 667.87 206.58 673.79 201.03
  C 678.94 196.20 675.96 187.34 672.01 182.73
  Q 666.66 176.46 661.03 170.53
  A 0.16 0.15 -56.9 0 0 660.77 170.59
  Z"
/>
<path fill="#2d2d2d" d="
  M 1035.98 210.39
  A 0.78 0.77 -40.1 0 0 1034.52 210.27
  Q 1029.32 222.28 1016.77 226.06
  C 994.74 232.70 976.72 221.15 972.60 198.69
  C 967.02 168.34 975.84 120.05 1016.49 120.05
  C 1026.81 120.06 1035.45 124.77 1038.74 134.62
  A 0.53 0.52 -51.7 0 0 1039.76 134.50
  L 1040.52 126.20
  A 0.92 0.91 -10.9 0 1 1041.03 125.45
  C 1053.85 119.06 1074.90 120.70 1073.39 140.18
  Q 1071.47 164.91 1069.58 189.64
  C 1069.02 196.94 1069.30 203.01 1077.99 203.24
  A 0.76 0.75 80.2 0 1 1078.68 203.73
  C 1088.99 232.22 1042.87 238.45 1035.98 210.39
  Z
  M 1027.52 146.19
  C 1000.89 142.51 999.25 198.10 1014.99 201.76
  C 1030.08 205.27 1035.25 190.13 1036.45 178.75
  C 1037.45 169.24 1040.26 147.95 1027.52 146.19
  Z"
/>
<path fill="#2d2d2d" d="
  M 553.82 196.97
  C 564.14 210.48 584.89 203.30 594.65 193.08
  Q 595.02 192.69 595.52 192.89
  C 605.38 196.81 605.10 206.19 599.96 213.81
  C 592.28 225.21 575.49 228.54 562.72 228.37
  C 526.57 227.88 511.75 197.99 518.11 165.58
  C 523.52 137.98 546.10 118.09 574.96 120.70
  Q 585.15 121.62 591.74 125.49
  C 603.97 132.66 609.39 148.99 604.86 162.09
  C 597.33 183.89 572.37 190.80 554.02 196.35
  Q 553.48 196.52 553.82 196.97
  Z
  M 568.01 147.04
  C 554.66 147.58 548.57 162.92 548.80 174.29
  Q 548.81 174.82 549.32 174.66
  C 558.13 171.99 580.47 165.65 575.82 151.89
  C 574.65 148.40 571.44 146.90 568.01 147.04
  Z"
/>
<path fill="#ffffff" d="
  M 1014.99 201.76
  C 999.25 198.10 1000.89 142.51 1027.52 146.19
  C 1040.26 147.95 1037.45 169.24 1036.45 178.75
  C 1035.25 190.13 1030.08 205.27 1014.99 201.76
  Z"
/>
<path fill="#ffffff" d="
  M 548.80 174.29
  C 548.57 162.92 554.66 147.58 568.01 147.04
  C 571.44 146.90 574.65 148.40 575.82 151.89
  C 580.47 165.65 558.13 171.99 549.32 174.66
  Q 548.81 174.82 548.80 174.29
  Z"
/>
<path fill="#298fef" d="
  M 71.28 254.26
  Q 70.05 252.92 69.52 250.81
  Q 57.46 202.50 45.46 155.10
  A 2.89 2.89 0.0 0 1 48.26 151.50
  L 258.75 151.50
  A 2.76 2.75 -82.9 0 1 261.42 154.93
  L 237.02 251.90
  Q 236.25 255.00 233.05 255.00
  L 72.98 255.00
  A 2.33 2.32 68.5 0 1 71.28 254.26
  Z"
/>
<path fill="#ffffff" d="
  M 660.77 170.59
  A 0.16 0.15 -56.9 0 1 661.03 170.53
  Q 666.66 176.46 672.01 182.73
  C 675.96 187.34 678.94 196.20 673.79 201.03
  C 667.87 206.58 654.60 206.14 648.74 200.59
  Q 648.39 200.25 648.61 199.82
  Q 655.77 185.65 660.77 170.59
  Z"
/>
</svg>
